<svg width="21" height="15" viewBox="0 0 21 15" fill="none" xmlns="http://www.w3.org/2000/svg">
<path fill-rule="evenodd" clip-rule="evenodd" d="M6.52527 11.8752H6.52434C6.1979 11.8759 5.93263 12.1419 5.93263 12.4688C5.93263 12.7961 6.19882 13.0625 6.52589 13.0625H17.2837C17.6114 13.0625 17.877 13.3283 17.877 13.6562C17.877 13.9842 17.6114 14.25 17.2837 14.25H6.52589C5.54453 14.25 4.7461 13.4509 4.7461 12.4688C4.7461 11.7379 5.18842 11.1087 5.81892 10.8344L3.67699 1.1875H0.593263C0.265578 1.1875 0 0.921704 0 0.59375C0 0.265796 0.265578 0 0.593263 0H4.15284C4.43093 0 4.67163 0.193278 4.73204 0.46495L5.15613 2.375H19.6568C19.8429 2.375 20.0183 2.46252 20.1305 2.61126C20.2425 2.76001 20.2783 2.95267 20.2272 3.13188L17.8541 11.4444C17.7814 11.6992 17.5485 11.875 17.2837 11.875H6.52759L6.52527 11.8752ZM16.8362 10.6875L18.8703 3.5625H5.41974L7.00177 10.6875H16.8362Z" fill="white"/>
</svg>
