<svg width="12" height="16" viewBox="0 0 12 16" fill="none" xmlns="http://www.w3.org/2000/svg">
<path d="M3.06 6.75977C2.18 6.75977 1.45333 6.4731 0.88 5.89977C0.293333 5.3131 0 4.59977 0 3.75977C0 2.9331 0.293333 2.22643 0.88 1.63977C1.46667 1.0531 2.19333 0.759766 3.06 0.759766C3.92667 0.759766 4.65333 1.0531 5.24 1.63977C5.82667 2.22643 6.12 2.9331 6.12 3.75977C6.12 4.6131 5.83333 5.32643 5.26 5.89977C4.68667 6.4731 3.95333 6.75977 3.06 6.75977ZM1.28 3.75977C1.28 4.26643 1.44667 4.6931 1.78 5.03976C2.11333 5.38643 2.54 5.55977 3.06 5.55977C3.58 5.55977 4.00667 5.38643 4.34 5.03976C4.67333 4.6931 4.84 4.26643 4.84 3.75977C4.84 3.2531 4.67333 2.82643 4.34 2.47976C4.00667 2.1331 3.58 1.95977 3.06 1.95977C2.54 1.95977 2.11333 2.1331 1.78 2.47976C1.44667 2.82643 1.28 3.2531 1.28 3.75977ZM1.54 13.5798L0.7 13.0998L10.08 2.55977L10.94 3.03976L1.54 13.5798ZM10.9 14.3798C10.3267 14.9531 9.6 15.2398 8.72 15.2398C7.84 15.2398 7.11333 14.9531 6.54 14.3798C5.95333 13.7931 5.66 13.0798 5.66 12.2398C5.66 11.4131 5.95333 10.7064 6.54 10.1198C7.12667 9.5331 7.85333 9.23977 8.72 9.23977C9.58667 9.23977 10.3133 9.5331 10.9 10.1198C11.4867 10.7064 11.78 11.4131 11.78 12.2398C11.78 13.0798 11.4867 13.7931 10.9 14.3798ZM6.94 12.2398C6.94 12.7464 7.10667 13.1731 7.44 13.5198C7.77333 13.8664 8.2 14.0398 8.72 14.0398C9.24 14.0398 9.66667 13.8664 10 13.5198C10.3333 13.1731 10.5 12.7464 10.5 12.2398C10.5 11.7331 10.3333 11.3064 10 10.9598C9.66667 10.6131 9.24 10.4398 8.72 10.4398C8.2 10.4398 7.77333 10.6131 7.44 10.9598C7.10667 11.3064 6.94 11.7331 6.94 12.2398Z" fill="#405FD4"/>
</svg>
