<svg width="18" height="18" viewBox="0 0 18 18" fill="none" xmlns="http://www.w3.org/2000/svg">
<path d="M1.85714 0C0.828571 0 0 0.828571 0 1.85714V13.2857C0 14.3143 0.828571 15.1429 1.85714 15.1429H9.85714C10.1 15.1429 10.2857 14.9571 10.2857 14.7143C10.2857 14.4714 10.1 14.2857 9.85714 14.2857H1.85714C1.3 14.2857 0.857143 13.8429 0.857143 13.2857V1.85714C0.857143 1.3 1.3 0.857143 1.85714 0.857143H16.1429C16.7 0.857143 17.1429 1.3 17.1429 1.85714V7.57143C17.1429 7.81429 17.3286 8 17.5714 8C17.8143 8 18 7.81429 18 7.57143V1.85714C18 0.828571 17.1714 0 16.1429 0H1.85714ZM2.57143 4.28571C2.32857 4.28571 2.14286 4.47143 2.14286 4.71429C2.14286 4.95714 2.32857 5.14286 2.57143 5.14286H15.4286C15.6714 5.14286 15.8571 4.95714 15.8571 4.71429C15.8571 4.47143 15.6714 4.28571 15.4286 4.28571H2.57143ZM2.57143 7.14286C2.32857 7.14286 2.14286 7.32857 2.14286 7.57143C2.14286 7.81429 2.32857 8 2.57143 8H10.1429C10.3857 8 10.5714 7.81429 10.5714 7.57143C10.5714 7.32857 10.3857 7.14286 10.1429 7.14286H2.57143ZM15.1429 8.28572C13.5714 8.28572 12.2857 9.57143 12.2857 11.1429C12.2857 12.7143 13.5714 14 15.1429 14C16.7143 14 18 12.7143 18 11.1429C18 9.57143 16.7143 8.28572 15.1429 8.28572ZM15.1429 9.14286C16.2429 9.14286 17.1429 10.0429 17.1429 11.1429C17.1429 12.2429 16.2429 13.1429 15.1429 13.1429C14.0429 13.1429 13.1429 12.2429 13.1429 11.1429C13.1429 10.0429 14.0429 9.14286 15.1429 9.14286ZM2.57143 10C2.32857 10 2.14286 10.1857 2.14286 10.4286C2.14286 10.6714 2.32857 10.8571 2.57143 10.8571H7.28571C7.52857 10.8571 7.71429 10.6714 7.71429 10.4286C7.71429 10.1857 7.52857 10 7.28571 10H2.57143ZM10.1429 10C10.0292 10 9.92018 10.0452 9.83981 10.1255C9.75944 10.2059 9.71429 10.3149 9.71429 10.4286C9.71429 10.5422 9.75944 10.6512 9.83981 10.7316C9.92018 10.812 10.0292 10.8571 10.1429 10.8571C10.2565 10.8571 10.3655 10.812 10.4459 10.7316C10.5263 10.6512 10.5714 10.5422 10.5714 10.4286C10.5714 10.3149 10.5263 10.2059 10.4459 10.1255C10.3655 10.0452 10.2565 10 10.1429 10ZM12.7143 14.2857C12.4714 14.2857 12.2857 14.4714 12.2857 14.7143V17.5714C12.2857 17.7286 12.3714 17.8714 12.5 17.9428C12.6286 18.0142 12.8 18.0142 12.9286 17.9428L15.1429 16.6429L17.3571 17.9428C17.4286 17.9857 17.5 18 17.5714 18C17.6429 18 17.7143 17.9857 17.7857 17.9428C17.9143 17.8714 18 17.7286 18 17.5714V14.7143C18 14.4714 17.8143 14.2857 17.5714 14.2857C17.3286 14.2857 17.1429 14.4714 17.1429 14.7143V16.8287L15.3571 15.7857C15.2286 15.7 15.0571 15.7 14.9286 15.7857L13.1429 16.8287V14.7143C13.1429 14.4714 12.9571 14.2857 12.7143 14.2857Z" fill="#405FD4"/>
</svg>
